<svg width="1200" height="900" viewBox="0 0 1200 900" fill="none" xmlns="http://www.w3.org/2000/svg">
  <defs>
    <linearGradient id="a1" x1="180" y1="110" x2="1020" y2="800" gradientUnits="userSpaceOnUse">
      <stop stop-color="#8B5CF6" stop-opacity="0.88"/>
      <stop offset="0.5" stop-color="#22D3EE" stop-opacity="0.72"/>
      <stop offset="1" stop-color="#F9A8D4" stop-opacity="0.45"/>
    </linearGradient>
    <filter id="aShadow" x="0" y="0" width="1200" height="900" filterUnits="userSpaceOnUse" color-interpolation-filters="sRGB">
      <feDropShadow dx="0" dy="20" stdDeviation="26" flood-color="#020617" flood-opacity="0.46"/>
    </filter>
  </defs>
  <rect width="1200" height="900" rx="56" fill="#060812"/>
  <circle cx="900" cy="160" r="170" fill="#8B5CF6" opacity="0.18"/>
  <circle cx="220" cy="150" r="140" fill="#22D3EE" opacity="0.14"/>
  <rect x="120" y="84" width="960" height="732" rx="44" fill="#08101E" stroke="#E2E8F0" stroke-opacity="0.08"/>

  <g filter="url(#aShadow)">
    <rect x="170" y="130" width="860" height="620" rx="34" fill="#0B1220" stroke="#E2E8F0" stroke-opacity="0.07"/>
    <rect x="198" y="160" width="804" height="564" rx="26" fill="#060812" stroke="#22D3EE" stroke-opacity="0.14"/>
  </g>

  <rect x="200" y="160" width="804" height="84" rx="26" fill="#0F172A" fill-opacity="0.82"/>
  <circle cx="246" cy="202" r="10" fill="#22D3EE"/>
  <circle cx="276" cy="202" r="10" fill="#8B5CF6"/>
  <circle cx="306" cy="202" r="10" fill="#F9A8D4"/>

  <rect x="232" y="286" width="212" height="78" rx="22" fill="#0F172A" stroke="#E2E8F0" stroke-opacity="0.08"/>
  <rect x="232" y="388" width="212" height="78" rx="22" fill="#0F172A" stroke="#E2E8F0" stroke-opacity="0.08"/>
  <rect x="232" y="490" width="212" height="78" rx="22" fill="#0F172A" stroke="#E2E8F0" stroke-opacity="0.08"/>
  <rect x="232" y="592" width="212" height="78" rx="22" fill="#0F172A" stroke="#E2E8F0" stroke-opacity="0.08"/>

  <rect x="500" y="286" width="442" height="376" rx="28" fill="#0B1220" stroke="#E2E8F0" stroke-opacity="0.08"/>
  <path d="M536 586L620 502L686 544L764 386L850 438L920 338" stroke="url(#a1)" stroke-width="16" stroke-linecap="round" stroke-linejoin="round"/>
  <path d="M536 586L620 502L686 544L764 386L850 438L920 338" stroke="#E2E8F0" stroke-opacity="0.2" stroke-width="2" stroke-linecap="round" stroke-linejoin="round"/>

  <circle cx="536" cy="586" r="10" fill="#22D3EE"/>
  <circle cx="620" cy="502" r="10" fill="#8B5CF6"/>
  <circle cx="686" cy="544" r="10" fill="#F9A8D4"/>
  <circle cx="764" cy="386" r="10" fill="#22D3EE"/>
  <circle cx="850" cy="438" r="10" fill="#8B5CF6"/>
  <circle cx="920" cy="338" r="10" fill="#22D3EE"/>

  <rect x="536" y="650" width="160" height="18" rx="9" fill="#22D3EE" fill-opacity="0.26"/>
  <rect x="710" y="650" width="122" height="18" rx="9" fill="#8B5CF6" fill-opacity="0.26"/>
  <rect x="848" y="650" width="68" height="18" rx="9" fill="#F9A8D4" fill-opacity="0.26"/>
</svg>