<svg width="1200" height="1200" viewBox="0 0 1200 1200" fill="none" xmlns="http://www.w3.org/2000/svg">
  <defs>
    <radialGradient id="g1" cx="0" cy="0" r="1" gradientUnits="userSpaceOnUse" gradientTransform="translate(600 420) rotate(90) scale(520 560)">
      <stop stop-color="#8B5CF6" stop-opacity="0.95"/>
      <stop offset="0.55" stop-color="#22D3EE" stop-opacity="0.55"/>
      <stop offset="1" stop-color="#020617" stop-opacity="0"/>
    </radialGradient>
    <linearGradient id="g2" x1="320" y1="240" x2="900" y2="960" gradientUnits="userSpaceOnUse">
      <stop stop-color="#E2E8F0"/>
      <stop offset="1" stop-color="#94A3B8"/>
    </linearGradient>
    <linearGradient id="g3" x1="320" y1="200" x2="920" y2="980" gradientUnits="userSpaceOnUse">
      <stop stop-color="#0F172A" stop-opacity="0.2"/>
      <stop offset="1" stop-color="#0F172A" stop-opacity="0.62"/>
    </linearGradient>
    <filter id="blur" x="0" y="0" width="1200" height="1200" filterUnits="userSpaceOnUse" color-interpolation-filters="sRGB">
      <feGaussianBlur stdDeviation="28"/>
    </filter>
  </defs>
  <rect width="1200" height="1200" rx="80" fill="#060812"/>
  <circle cx="610" cy="540" r="420" fill="url(#g1)" filter="url(#blur)" opacity="0.55"/>
  <circle cx="250" cy="250" r="180" fill="#22D3EE" opacity="0.15" filter="url(#blur)"/>
  <circle cx="960" cy="210" r="160" fill="#F9A8D4" opacity="0.12" filter="url(#blur)"/>

  <g opacity="0.24">
    <rect x="90" y="90" width="1020" height="1020" rx="42" stroke="#E2E8F0" stroke-opacity="0.16"/>
    <path d="M210 270H990" stroke="#E2E8F0" stroke-opacity="0.08"/>
    <path d="M210 930H990" stroke="#E2E8F0" stroke-opacity="0.08"/>
    <path d="M220 220V980" stroke="#E2E8F0" stroke-opacity="0.06"/>
    <path d="M980 220V980" stroke="#E2E8F0" stroke-opacity="0.06"/>
  </g>

  <g>
    <rect x="260" y="250" width="680" height="680" rx="44" fill="rgba(15,23,42,0.55)" stroke="#E2E8F0" stroke-opacity="0.1"/>
    <rect x="320" y="310" width="560" height="560" rx="34" fill="#08101E" stroke="#22D3EE" stroke-opacity="0.18"/>

    <path d="M420 520C420 416.828 503.828 333 607 333C710.172 333 794 416.828 794 520V608C794 691.255 726.255 759 643 759H571C487.745 759 420 691.255 420 608V520Z" fill="url(#g2)"/>
    <path d="M442 492C442 448.863 476.863 414 520 414H694C737.137 414 772 448.863 772 492V575C772 649.558 711.558 710 637 710H579C504.442 710 444 649.558 444 575V492Z" fill="url(#g3)"/>

    <ellipse cx="603" cy="500" rx="122" ry="128" fill="url(#g2)" opacity="0.18"/>
    <circle cx="545" cy="510" r="12" fill="#0F172A"/>
    <circle cx="663" cy="510" r="12" fill="#0F172A"/>
    <path d="M553 582C578 607 627 607 652 582" stroke="#0F172A" stroke-width="14" stroke-linecap="round"/>

    <rect x="376" y="790" width="448" height="72" rx="36" fill="#0F172A" fill-opacity="0.72" stroke="#22D3EE" stroke-opacity="0.18"/>
    <rect x="396" y="812" width="118" height="28" rx="14" fill="#22D3EE" fill-opacity="0.34"/>
    <rect x="530" y="812" width="90" height="28" rx="14" fill="#8B5CF6" fill-opacity="0.34"/>
    <rect x="634" y="812" width="146" height="28" rx="14" fill="#F9A8D4" fill-opacity="0.28"/>
  </g>
</svg>