<svg width="1200" height="900" viewBox="0 0 1200 900" fill="none" xmlns="http://www.w3.org/2000/svg">
  <defs>
    <linearGradient id="i1" x1="220" y1="120" x2="1020" y2="800" gradientUnits="userSpaceOnUse">
      <stop stop-color="#22D3EE" stop-opacity="0.9"/>
      <stop offset="0.55" stop-color="#8B5CF6" stop-opacity="0.66"/>
      <stop offset="1" stop-color="#020617" stop-opacity="0.12"/>
    </linearGradient>
    <filter id="iShadow" x="0" y="0" width="1200" height="900" filterUnits="userSpaceOnUse" color-interpolation-filters="sRGB">
      <feDropShadow dx="0" dy="20" stdDeviation="22" flood-color="#020617" flood-opacity="0.45"/>
    </filter>
  </defs>
  <rect width="1200" height="900" rx="56" fill="#060812"/>
  <circle cx="240" cy="180" r="170" fill="#22D3EE" opacity="0.15"/>
  <circle cx="960" cy="140" r="150" fill="#8B5CF6" opacity="0.18"/>
  <rect x="140" y="92" width="920" height="716" rx="42" fill="#08101E" stroke="#E2E8F0" stroke-opacity="0.08"/>

  <g filter="url(#iShadow)">
    <rect x="210" y="160" width="780" height="560" rx="34" fill="#0B1220" stroke="#E2E8F0" stroke-opacity="0.07"/>
    <rect x="240" y="190" width="720" height="500" rx="26" fill="#060812" stroke="#22D3EE" stroke-opacity="0.14"/>
  </g>

  <rect x="240" y="190" width="720" height="72" rx="26" fill="#0F172A" fill-opacity="0.8"/>
  <circle cx="278" cy="226" r="10" fill="#22D3EE"/>
  <circle cx="308" cy="226" r="10" fill="#8B5CF6"/>
  <circle cx="338" cy="226" r="10" fill="#F9A8D4"/>

  <rect x="282" y="304" width="260" height="256" rx="28" fill="url(#i1)" opacity="0.88"/>
  <rect x="584" y="304" width="334" height="110" rx="24" fill="#0F172A" stroke="#E2E8F0" stroke-opacity="0.08"/>
  <rect x="584" y="440" width="334" height="120" rx="24" fill="#0F172A" stroke="#E2E8F0" stroke-opacity="0.08"/>
  <rect x="584" y="580" width="334" height="52" rx="18" fill="#22D3EE" fill-opacity="0.18"/>

  <path d="M308 388H516" stroke="white" stroke-opacity="0.9" stroke-width="10" stroke-linecap="round"/>
  <path d="M308 430H472" stroke="white" stroke-opacity="0.68" stroke-width="10" stroke-linecap="round"/>
  <path d="M308 472H446" stroke="white" stroke-opacity="0.44" stroke-width="10" stroke-linecap="round"/>
  <path d="M308 514H490" stroke="white" stroke-opacity="0.58" stroke-width="10" stroke-linecap="round"/>

  <rect x="616" y="336" width="172" height="18" rx="9" fill="#E2E8F0" fill-opacity="0.9"/>
  <rect x="616" y="370" width="214" height="14" rx="7" fill="#94A3B8" fill-opacity="0.8"/>
  <rect x="616" y="472" width="138" height="18" rx="9" fill="#E2E8F0" fill-opacity="0.9"/>
  <rect x="616" y="506" width="186" height="14" rx="7" fill="#94A3B8" fill-opacity="0.8"/>
  <rect x="616" y="592" width="118" height="20" rx="10" fill="#8B5CF6" fill-opacity="0.32"/>
  <rect x="748" y="592" width="138" height="20" rx="10" fill="#22D3EE" fill-opacity="0.32"/>
</svg>