<svg width="1200" height="900" viewBox="0 0 1200 900" fill="none" xmlns="http://www.w3.org/2000/svg">
  <defs>
    <linearGradient id="p1" x1="170" y1="130" x2="1020" y2="780" gradientUnits="userSpaceOnUse">
      <stop stop-color="#8B5CF6" stop-opacity="0.95"/>
      <stop offset="0.54" stop-color="#22D3EE" stop-opacity="0.65"/>
      <stop offset="1" stop-color="#0F172A" stop-opacity="0.2"/>
    </linearGradient>
    <linearGradient id="p2" x1="320" y1="200" x2="940" y2="760" gradientUnits="userSpaceOnUse">
      <stop stop-color="#E2E8F0"/>
      <stop offset="1" stop-color="#94A3B8"/>
    </linearGradient>
    <filter id="shadow" x="0" y="0" width="1200" height="900" filterUnits="userSpaceOnUse" color-interpolation-filters="sRGB">
      <feDropShadow dx="0" dy="18" stdDeviation="24" flood-color="#020617" flood-opacity="0.45"/>
    </filter>
  </defs>
  <rect width="1200" height="900" rx="56" fill="#060812"/>
  <circle cx="230" cy="130" r="160" fill="#8B5CF6" opacity="0.18" filter="url(#shadow)"/>
  <circle cx="980" cy="170" r="140" fill="#22D3EE" opacity="0.14" filter="url(#shadow)"/>
  <rect x="120" y="90" width="960" height="720" rx="44" fill="#08101E" stroke="#E2E8F0" stroke-opacity="0.08"/>
  <rect x="170" y="140" width="360" height="620" rx="34" fill="#0F172A" stroke="#22D3EE" stroke-opacity="0.16"/>
  <rect x="570" y="140" width="410" height="620" rx="34" fill="#0B1220" stroke="#8B5CF6" stroke-opacity="0.16"/>

  <g filter="url(#shadow)">
    <rect x="240" y="210" width="220" height="160" rx="28" fill="url(#p1)" opacity="0.92"/>
    <rect x="240" y="394" width="220" height="118" rx="24" fill="#0B1220" stroke="#E2E8F0" stroke-opacity="0.08"/>
    <rect x="240" y="534" width="220" height="118" rx="24" fill="#0B1220" stroke="#E2E8F0" stroke-opacity="0.08"/>
    <rect x="240" y="674" width="220" height="58" rx="19" fill="#22D3EE" fill-opacity="0.22"/>
  </g>

  <g>
    <rect x="615" y="210" width="310" height="62" rx="20" fill="#0F172A" stroke="#E2E8F0" stroke-opacity="0.08"/>
    <rect x="615" y="294" width="310" height="62" rx="20" fill="#0F172A" stroke="#E2E8F0" stroke-opacity="0.08"/>
    <rect x="615" y="378" width="310" height="62" rx="20" fill="#0F172A" stroke="#E2E8F0" stroke-opacity="0.08"/>
    <rect x="615" y="462" width="310" height="62" rx="20" fill="#0F172A" stroke="#E2E8F0" stroke-opacity="0.08"/>
    <rect x="615" y="546" width="180" height="62" rx="20" fill="#8B5CF6" fill-opacity="0.24"/>
    <rect x="806" y="546" width="119" height="62" rx="20" fill="#22D3EE" fill-opacity="0.22"/>
  </g>

  <path d="M286 300C314 274 360 274 388 300" stroke="white" stroke-opacity="0.9" stroke-width="12" stroke-linecap="round"/>
  <circle cx="296" cy="270" r="10" fill="white" fill-opacity="0.88"/>
  <circle cx="378" cy="270" r="10" fill="white" fill-opacity="0.88"/>
  <rect x="286" y="432" width="112" height="14" rx="7" fill="#E2E8F0" fill-opacity="0.84"/>
  <rect x="286" y="464" width="156" height="12" rx="6" fill="#94A3B8" fill-opacity="0.8"/>
  <rect x="286" y="572" width="126" height="14" rx="7" fill="#E2E8F0" fill-opacity="0.84"/>
  <rect x="286" y="604" width="160" height="12" rx="6" fill="#94A3B8" fill-opacity="0.8"/>
</svg>